<?xml version="1.0" encoding="utf-8"?>
<!-- Generator: Adobe Illustrator 16.0.0, SVG Export Plug-In . SVG Version: 6.00 Build 0)  -->
<!DOCTYPE svg PUBLIC "-//W3C//DTD SVG 1.1//EN" "http://www.w3.org/Graphics/SVG/1.1/DTD/svg11.dtd">
<svg version="1.1" id="Layer_1" xmlns="http://www.w3.org/2000/svg" xmlns:xlink="http://www.w3.org/1999/xlink" x="0px" y="0px"
	 width="330px" height="55px" viewBox="0 0 330 55" enable-background="new 0 0 330 55" xml:space="preserve">
<g>
	<path fill="#282828" d="M34.776,41.932H19.834c-0.759,0-1.375-0.615-1.375-1.375s0.616-1.375,1.375-1.375h14.942
		c0.76,0,1.375,0.615,1.375,1.375S35.536,41.932,34.776,41.932z"/>
</g>
<g>
	<path fill="#282828" d="M11.63,21.753c-3.124,0-5.666-2.541-5.666-5.665c0-0.607,0.493-1.1,1.1-1.1s1.1,0.493,1.1,1.1
		c0,1.91,1.555,3.464,3.465,3.464c1.912,0,3.466-1.554,3.466-3.464c0-0.607,0.493-1.1,1.1-1.1s1.1,0.493,1.1,1.1
		C17.296,19.212,14.754,21.753,11.63,21.753z"/>
</g>
<g>
	<path fill="#282828" d="M43.347,21.753c-3.124,0-5.665-2.541-5.665-5.665c0-0.607,0.492-1.1,1.1-1.1s1.1,0.493,1.1,1.1
		c0,1.91,1.555,3.464,3.466,3.464s3.467-1.554,3.467-3.464c0-0.607,0.492-1.1,1.1-1.1s1.1,0.493,1.1,1.1
		C49.013,19.212,46.471,21.753,43.347,21.753z"/>
</g>
<g>
	<path fill="#282828" d="M69.329,48.071c-0.015,0-0.028,0-0.043-0.001l-8.683-0.346c-0.416-0.017-0.783-0.279-0.933-0.668
		c-0.149-0.39-0.053-0.83,0.245-1.122l7.667-7.49l-5.069-0.202c-0.575-0.022-1.024-0.509-1.001-1.085s0.514-1.049,1.085-1.001
		l7.49,0.299c0.416,0.017,0.783,0.279,0.933,0.669c0.149,0.389,0.053,0.829-0.245,1.121l-7.667,7.49l6.262,0.249
		c0.575,0.022,1.024,0.509,1.001,1.085C70.349,47.631,69.886,48.071,69.329,48.071z"/>
</g>
<g opacity="0.75">
	<path fill="#282828" d="M124.329,48.071c-0.015,0-0.028,0-0.043-0.001l-8.683-0.346c-0.416-0.017-0.783-0.279-0.933-0.668
		c-0.149-0.39-0.053-0.83,0.245-1.122l7.667-7.49l-5.069-0.202c-0.575-0.022-1.024-0.509-1.001-1.085s0.51-1.049,1.085-1.001
		l7.49,0.299c0.416,0.017,0.783,0.279,0.933,0.669c0.149,0.389,0.053,0.829-0.245,1.121l-7.667,7.49l6.262,0.249
		c0.575,0.022,1.024,0.509,1.001,1.085C125.349,47.631,124.886,48.071,124.329,48.071z"/>
</g>
<g opacity="0.75">
	<path fill="#282828" d="M131.515,40.821c-0.299,0-0.589-0.129-0.791-0.362c-0.272-0.316-0.33-0.764-0.147-1.139l7.567-15.544
		l-8.133,2.556c-0.549,0.172-1.136-0.134-1.309-0.683c-0.173-0.55,0.133-1.136,0.684-1.309l10.445-3.282
		c0.396-0.125,0.831-0.001,1.104,0.314s0.33,0.763,0.147,1.138l-7.568,15.545l10.409-3.27c0.546-0.172,1.135,0.133,1.309,0.684
		c0.173,0.55-0.133,1.136-0.684,1.309l-12.721,3.995C131.725,40.806,131.619,40.821,131.515,40.821z"/>
</g>
<g opacity="0.5">
	<path fill="#282828" d="M179.329,48.071c-0.015,0-0.028,0-0.043-0.001l-8.683-0.346c-0.416-0.017-0.783-0.279-0.933-0.668
		c-0.149-0.39-0.053-0.83,0.245-1.122l7.667-7.49l-5.069-0.202c-0.575-0.022-1.024-0.509-1.001-1.085s0.506-1.049,1.085-1.001
		l7.49,0.299c0.416,0.017,0.783,0.279,0.933,0.669c0.149,0.389,0.053,0.829-0.245,1.121l-7.667,7.49l6.262,0.249
		c0.575,0.022,1.024,0.509,1.001,1.085C180.349,47.631,179.886,48.071,179.329,48.071z"/>
</g>
<g opacity="0.5">
	<path fill="#282828" d="M186.515,40.821c-0.299,0-0.589-0.129-0.791-0.362c-0.272-0.316-0.33-0.764-0.147-1.139l7.567-15.544
		l-8.133,2.556c-0.549,0.172-1.136-0.134-1.309-0.683c-0.173-0.55,0.133-1.136,0.684-1.309l10.445-3.282
		c0.397-0.125,0.831-0.001,1.104,0.314s0.33,0.763,0.147,1.138l-7.568,15.545l10.409-3.27c0.546-0.172,1.135,0.133,1.309,0.684
		c0.173,0.55-0.133,1.136-0.684,1.309l-12.721,3.995C186.725,40.806,186.619,40.821,186.515,40.821z"/>
</g>
<g opacity="0.5">
	<path fill="#282828" d="M200.578,28.687c-0.287,0-0.567-0.118-0.769-0.337c-0.282-0.307-0.354-0.752-0.185-1.132l8.719-19.504
		l-10.18,3.568c-0.545,0.189-1.142-0.097-1.331-0.64c-0.19-0.544,0.096-1.14,0.64-1.331l12.468-4.369
		c0.396-0.139,0.832-0.028,1.114,0.279s0.354,0.752,0.185,1.132l-8.719,19.504l12.896-4.521c0.543-0.191,1.14,0.095,1.331,0.64
		c0.19,0.544-0.096,1.14-0.64,1.33l-15.185,5.324C200.811,28.668,200.693,28.687,200.578,28.687z"/>
</g>
<g>
	<circle fill="#282828" cx="247.225" cy="38.5" r="8.316"/>
	
		<linearGradient id="SVGID_1_" gradientUnits="userSpaceOnUse" x1="247.3232" y1="-1155.0117" x2="247.3232" y2="-1159.7701" gradientTransform="matrix(1 0 0 1.4443 -0.0972 1715.6621)">
		<stop  offset="0.1989" style="stop-color:#FCC3CD"/>
		<stop  offset="0.3154" style="stop-color:#F8C0CA"/>
		<stop  offset="0.4413" style="stop-color:#EBB8C1"/>
		<stop  offset="0.5716" style="stop-color:#D5AAB2"/>
		<stop  offset="0.705" style="stop-color:#B7969D"/>
		<stop  offset="0.8408" style="stop-color:#907D82"/>
		<stop  offset="0.9767" style="stop-color:#615F61"/>
		<stop  offset="1" style="stop-color:#58595B"/>
	</linearGradient>
	<path fill="url(#SVGID_1_)" d="M247.225,47.189c3.42,0,6.355-2.066,7.633-5.018c-6.248-2.787-12.157-1.242-15.262,0.01
		C240.875,45.128,243.809,47.189,247.225,47.189z"/>
</g>
<g>
	<path fill="#282828" d="M267.711,18.706c-0.05,0-0.102-0.003-0.153-0.011l-8.926-1.247c-0.457-0.064-0.825-0.406-0.923-0.857
		c-0.098-0.451,0.097-0.915,0.486-1.162l4.888-3.099c0.513-0.325,1.193-0.173,1.518,0.34c0.325,0.513,0.174,1.192-0.34,1.518
		l-2.357,1.495l5.959,0.833c0.602,0.084,1.021,0.64,0.938,1.242C268.723,18.308,268.251,18.706,267.711,18.706z"/>
</g>
<g>
	<path fill="#282828" d="M227.136,18.706c-0.54,0-1.012-0.398-1.089-0.948c-0.084-0.602,0.336-1.158,0.938-1.242l5.96-0.833
		l-2.357-1.495c-0.514-0.326-0.665-1.005-0.34-1.518c0.324-0.513,1.004-0.666,1.518-0.34l4.887,3.099
		c0.39,0.247,0.584,0.711,0.486,1.162c-0.098,0.451-0.466,0.792-0.923,0.856l-8.926,1.247
		C227.237,18.703,227.186,18.706,227.136,18.706z"/>
</g>
<g>
	<circle fill="#282828" cx="302.224" cy="38.453" r="10.396"/>
	
		<linearGradient id="SVGID_2_" gradientUnits="userSpaceOnUse" x1="302.3232" y1="-1153.4897" x2="302.3232" y2="-1159.4382" gradientTransform="matrix(1 0 0 1.4443 -0.0972 1715.6621)">
		<stop  offset="0.1989" style="stop-color:#FCC3CD"/>
		<stop  offset="0.3154" style="stop-color:#F8C0CA"/>
		<stop  offset="0.4413" style="stop-color:#EBB8C1"/>
		<stop  offset="0.5716" style="stop-color:#D5AAB2"/>
		<stop  offset="0.705" style="stop-color:#B7969D"/>
		<stop  offset="0.8408" style="stop-color:#907D82"/>
		<stop  offset="0.9767" style="stop-color:#615F61"/>
		<stop  offset="1" style="stop-color:#58595B"/>
	</linearGradient>
	<path fill="url(#SVGID_2_)" d="M302.225,49.314c4.274,0,7.943-2.582,9.541-6.271c-7.811-3.484-15.197-1.553-19.078,0.012
		C294.287,46.738,297.954,49.314,302.225,49.314z"/>
</g>
<g>
	<path fill="#282828" d="M322.711,18.706c-0.05,0-0.102-0.003-0.153-0.011l-8.926-1.247c-0.457-0.064-0.825-0.406-0.923-0.857
		c-0.098-0.451,0.097-0.915,0.486-1.162l4.888-3.099c0.513-0.325,1.193-0.173,1.518,0.34c0.325,0.513,0.174,1.192-0.34,1.518
		l-2.357,1.495l5.959,0.833c0.602,0.084,1.021,0.64,0.938,1.242C323.723,18.308,323.251,18.706,322.711,18.706z"/>
</g>
<g>
	<path fill="#282828" d="M282.136,18.706c-0.54,0-1.012-0.398-1.089-0.948c-0.084-0.602,0.336-1.158,0.938-1.242l5.96-0.833
		l-2.357-1.495c-0.514-0.326-0.665-1.005-0.34-1.518c0.324-0.513,1.004-0.666,1.518-0.34l4.887,3.099
		c0.39,0.247,0.584,0.711,0.486,1.162c-0.098,0.451-0.466,0.792-0.923,0.856l-8.926,1.247
		C282.237,18.703,282.186,18.706,282.136,18.706z"/>
</g>
</svg>
